# xmcd
#
# Track frame offsets: 
#        150
#        11280
#        23660
#        36078
#        48011
#        67966
#        77251
#        89356
#        102971
#        116994
#        126660
#        140984
#        150745
#        162484
#        172559
#
# Disc length: 2476 seconds
#
# Revision: 10
# Processed by: cddbd v1.5.2PL0 Copyright (c) Steve Scherf et al.
# Submitted via: ExactAudioCopy v0.99pb5
#
DISCID=b709aa0f
DTITLE=Various Artist - Classic Country - TL 626-29 - Stars - CD 2
DYEAR=2001
DGENRE=Country
TTITLE0=Roger Miller - King of the road
TTITLE1=Patsy Cline - Crazy
TTITLE2=Merle Haggard And The Strangers - Okie from Muskogee
TTITLE3=Johnny Cash - Ring of fire
TTITLE4=Marty Robbins - El Paso
TTITLE5=Charley Pride - Kiss an angel good mornin'
TTITLE6=Eddy Arnold - Make the world go away
TTITLE7=Loretta Lynn - Coal miner's daughter
TTITLE8=Everly Brothers - Ebony eyes
TTITLE9=George Jones - The race is on
TTITLE10=David Houston - Almost persuaded
TTITLE11=Dave Dudley - Six days on the road
TTITLE12=Jack Greene - There goes my everything
TTITLE13=Merle Haggard And The Strangers - Mama tried
TTITLE14=Charlie Rich - Behind closed doors
EXTD=
EXTT0=
EXTT1=
EXTT2=
EXTT3=
EXTT4=
EXTT5=
EXTT6=
EXTT7=
EXTT8=
EXTT9=
EXTT10=
EXTT11=
EXTT12=
EXTT13=
EXTT14=
PLAYORDER=
